<?xml version="1.0" standalone="no"?>
<!DOCTYPE svg PUBLIC "-//W3C//DTD SVG 20010904//EN"
 "http://www.w3.org/TR/2001/REC-SVG-20010904/DTD/svg10.dtd">
<svg version="1.0" xmlns="http://www.w3.org/2000/svg"
 width="256.000000pt" height="256.000000pt" viewBox="0 0 256.000000 256.000000"
 preserveAspectRatio="xMidYMid meet">
<metadata>
Created by potrace 1.11, written by Peter Selinger 2001-2013
</metadata>
<g transform="translate(0.000000,256.000000) scale(0.100000,-0.100000)"
fill="#000000" stroke="none">
<path d="M1155 2312 c-54 -5 -179 -34 -235 -53 -30 -11 -59 -19 -64 -19 -5 1
-12 -2 -15 -7 -3 -4 -34 -21 -68 -38 -35 -16 -63 -33 -63 -37 0 -5 -7 -8 -15
-8 -8 0 -15 -4 -15 -10 0 -5 -5 -10 -11 -10 -11 0 -71 -46 -122 -93 l-30 -28
-35 33 c-19 18 -47 45 -62 61 -34 33 -65 35 -84 5 -27 -42 -37 -145 -21 -230
6 -29 2 -46 -19 -85 -15 -27 -27 -68 -29 -94 -1 -26 -8 -53 -15 -61 -6 -8 -9
-18 -6 -21 4 -4 0 -17 -9 -30 -8 -13 -22 -61 -31 -108 -10 -46 -20 -91 -23
-99 -19 -48 -4 -233 26 -309 6 -14 17 -54 26 -88 41 -164 144 -342 272 -468
42 -41 80 -75 85 -75 4 0 20 -12 35 -28 28 -27 141 -109 155 -111 5 -1 32 -12
60 -25 53 -24 225 -76 250 -76 7 1 2 7 -12 16 l-25 15 25 -7 c103 -28 271 -45
240 -24 -11 7 5 10 58 11 67 1 80 3 100 9 4 1 11 2 15 1 14 -3 160 29 206 45
24 8 51 12 58 10 8 -3 12 -2 9 3 -5 8 42 36 57 33 4 -1 7 2 7 7 0 5 13 14 29
21 35 14 68 51 77 85 4 15 18 34 33 43 14 9 28 19 31 22 3 3 18 12 34 20 54
28 163 145 197 211 27 54 33 77 35 144 2 59 10 97 29 145 15 35 29 73 31 82 2
10 7 28 10 40 30 124 35 242 15 341 -14 63 -25 67 -36 11 -10 -53 -18 -34 -21
52 -2 42 -6 89 -9 105 -4 16 -6 30 -5 31 2 7 -40 119 -60 158 -38 74 -108 163
-122 154 -5 -3 -25 12 -46 34 -20 21 -52 49 -69 61 l-33 22 0 -22 0 -22 -22
20 c-115 104 -326 198 -513 229 -43 7 -211 11 -260 6z"/>
</g>
</svg>
